<svg xmlns="http://www.w3.org/2000/svg" xmlns:xlink="http://www.w3.org/1999/xlink" width="400" zoomAndPan="magnify" viewBox="0 0 300 89.999999" height="120" preserveAspectRatio="xMidYMid meet" version="1.0"><defs><g/><clipPath id="8b3b690b94"><path d="M 116 15 L 136 15 L 136 31 L 116 31 Z M 116 15 " clip-rule="nonzero"/></clipPath><clipPath id="f5c65bf4ba"><path d="M 65.441406 0.632812 L 136.4375 9.59375 L 129.324219 65.941406 L 58.328125 56.980469 Z M 65.441406 0.632812 " clip-rule="nonzero"/></clipPath><clipPath id="9739708925"><path d="M 65.441406 0.632812 L 136.4375 9.59375 L 129.324219 65.941406 L 58.328125 56.980469 Z M 65.441406 0.632812 " clip-rule="nonzero"/></clipPath><clipPath id="3743af7a7c"><path d="M 62 2 L 117 2 L 117 58 L 62 58 Z M 62 2 " clip-rule="nonzero"/></clipPath><clipPath id="7593a3f41b"><path d="M 65.441406 0.632812 L 136.4375 9.59375 L 129.324219 65.941406 L 58.328125 56.980469 Z M 65.441406 0.632812 " clip-rule="nonzero"/></clipPath><clipPath id="7fc3dc46c0"><path d="M 65.441406 0.632812 L 136.4375 9.59375 L 129.324219 65.941406 L 58.328125 56.980469 Z M 65.441406 0.632812 " clip-rule="nonzero"/></clipPath><clipPath id="e13fe2926a"><rect x="0" width="260" y="0" height="88"/></clipPath></defs><g transform="matrix(1, 0, 0, 1, 21, 2)"><g clip-path="url(#e13fe2926a)"><g clip-path="url(#8b3b690b94)"><g clip-path="url(#f5c65bf4ba)"><g clip-path="url(#9739708925)"><path fill="#1c1c1c" d="M 118.703125 15.765625 L 125.054688 20.140625 L 119.894531 24.804688 L 117.148438 23.902344 L 116.53125 24.355469 L 118.382812 26.246094 C 117.992188 26.628906 117.460938 27.171875 117.664062 27.488281 C 117.847656 27.707031 118.511719 27.511719 119.039062 27.214844 L 119.78125 29.925781 L 120.570312 29.378906 L 120.96875 26.34375 L 126.992188 23.171875 L 128.21875 30.539062 L 129.300781 29.980469 L 130.71875 20.832031 C 133.273438 19.246094 135.8125 16.457031 135.222656 15.710938 C 134.632812 14.964844 130.671875 16.339844 128.742188 17.648438 L 119.539062 15.140625 Z M 118.703125 15.765625 " fill-opacity="1" fill-rule="nonzero"/></g></g></g><g clip-path="url(#3743af7a7c)"><g clip-path="url(#7593a3f41b)"><g clip-path="url(#7fc3dc46c0)"><path fill="#1c1c1c" d="M 73.230469 52.507812 C 73.714844 52.171875 74.191406 51.820312 74.65625 51.460938 C 74.851562 51.308594 75.132812 51.347656 75.285156 51.542969 C 75.4375 51.738281 75.398438 52.019531 75.203125 52.171875 C 74.726562 52.539062 74.238281 52.898438 73.746094 53.242188 C 73.542969 53.382812 73.261719 53.335938 73.121094 53.132812 C 72.980469 52.929688 73.027344 52.648438 73.230469 52.507812 Z M 76.695312 49.761719 C 77.132812 49.371094 77.558594 48.96875 77.980469 48.550781 C 78.15625 48.378906 78.441406 48.378906 78.613281 48.554688 C 78.789062 48.730469 78.785156 49.015625 78.609375 49.1875 C 78.179688 49.613281 77.738281 50.027344 77.292969 50.429688 C 77.109375 50.59375 76.824219 50.578125 76.660156 50.394531 C 76.496094 50.210938 76.511719 49.929688 76.695312 49.761719 Z M 79.800781 46.621094 C 81.324219 44.894531 82.722656 42.996094 83.996094 40.925781 C 84.128906 40.714844 84.402344 40.648438 84.613281 40.78125 C 84.824219 40.910156 84.890625 41.183594 84.761719 41.394531 C 83.457031 43.507812 82.03125 45.449219 80.472656 47.214844 C 80.3125 47.398438 80.027344 47.417969 79.84375 47.253906 C 79.65625 47.089844 79.636719 46.808594 79.800781 46.621094 Z M 85.328125 38.621094 C 85.605469 38.105469 85.878906 37.578125 86.148438 37.042969 C 86.257812 36.820312 86.523438 36.730469 86.746094 36.839844 C 86.96875 36.949219 87.058594 37.21875 86.949219 37.4375 C 86.679688 37.984375 86.398438 38.523438 86.113281 39.046875 C 85.996094 39.265625 85.726562 39.347656 85.507812 39.230469 C 85.289062 39.113281 85.210938 38.839844 85.328125 38.621094 Z M 87.269531 34.625 C 87.503906 34.089844 87.730469 33.546875 87.953125 32.992188 C 88.042969 32.761719 88.304688 32.652344 88.535156 32.742188 C 88.761719 32.835938 88.875 33.097656 88.78125 33.324219 C 88.558594 33.886719 88.328125 34.4375 88.089844 34.980469 C 87.992188 35.210938 87.730469 35.3125 87.503906 35.214844 C 87.273438 35.113281 87.171875 34.851562 87.269531 34.625 Z M 88.886719 30.496094 C 89.351562 29.171875 89.785156 27.796875 90.183594 26.382812 L 90.179688 26.402344 C 90.394531 25.460938 90.578125 24.546875 90.722656 23.652344 C 90.761719 23.410156 90.992188 23.242188 91.234375 23.28125 C 91.480469 23.320312 91.644531 23.550781 91.605469 23.796875 C 91.457031 24.707031 91.273438 25.644531 91.050781 26.601562 C 91.050781 26.609375 91.046875 26.617188 91.046875 26.625 C 90.640625 28.058594 90.203125 29.449219 89.730469 30.792969 C 89.648438 31.027344 89.394531 31.148438 89.160156 31.066406 C 88.925781 30.984375 88.804688 30.730469 88.886719 30.496094 Z M 91.050781 21.019531 C 91.101562 20.421875 91.132812 19.835938 91.148438 19.261719 C 91.152344 19.011719 91.359375 18.816406 91.605469 18.824219 C 91.855469 18.828125 92.050781 19.035156 92.042969 19.28125 C 92.027344 19.875 91.996094 20.480469 91.941406 21.09375 C 91.921875 21.34375 91.703125 21.523438 91.457031 21.503906 C 91.210938 21.484375 91.027344 21.265625 91.050781 21.019531 Z M 91.078125 16.625 C 91.03125 16.027344 90.960938 15.449219 90.867188 14.882812 C 90.828125 14.640625 90.992188 14.410156 91.238281 14.371094 C 91.480469 14.328125 91.710938 14.496094 91.75 14.738281 C 91.847656 15.328125 91.921875 15.933594 91.972656 16.550781 C 91.992188 16.796875 91.808594 17.011719 91.5625 17.035156 C 91.316406 17.054688 91.097656 16.871094 91.078125 16.625 Z M 90.265625 12.332031 C 89.933594 11.28125 89.511719 10.289062 88.996094 9.359375 L 89.015625 9.398438 C 88.238281 8.269531 87.449219 7.300781 86.648438 6.492188 C 86.476562 6.316406 86.476562 6.03125 86.652344 5.859375 C 86.828125 5.683594 87.109375 5.6875 87.285156 5.863281 C 88.121094 6.707031 88.945312 7.714844 89.753906 8.890625 C 89.761719 8.902344 89.769531 8.914062 89.777344 8.925781 C 90.324219 9.910156 90.769531 10.953125 91.121094 12.0625 C 91.195312 12.300781 91.0625 12.550781 90.828125 12.625 C 90.589844 12.699219 90.339844 12.570312 90.265625 12.332031 Z M 84.65625 4.832031 C 84.160156 4.5 83.660156 4.234375 83.160156 4.023438 C 82.929688 3.929688 82.824219 3.667969 82.917969 3.4375 C 83.011719 3.210938 83.273438 3.101562 83.503906 3.195312 C 84.058594 3.425781 84.609375 3.722656 85.152344 4.082031 C 85.359375 4.21875 85.414062 4.5 85.277344 4.703125 C 85.140625 4.910156 84.863281 4.964844 84.65625 4.832031 Z M 80.710938 3.480469 C 80.160156 3.464844 79.601562 3.515625 79.039062 3.632812 C 78.796875 3.683594 78.5625 3.527344 78.511719 3.285156 C 78.460938 3.046875 78.613281 2.808594 78.855469 2.757812 C 79.488281 2.625 80.117188 2.566406 80.742188 2.585938 C 80.988281 2.59375 81.179688 2.800781 81.171875 3.050781 C 81.164062 3.296875 80.957031 3.488281 80.710938 3.480469 Z M 76.84375 4.652344 C 75.722656 5.632812 74.980469 7.078125 74.613281 8.988281 L 74.613281 8.980469 C 74.503906 9.574219 74.445312 10.183594 74.433594 10.800781 C 74.429688 11.046875 74.222656 11.242188 73.976562 11.238281 C 73.730469 11.234375 73.53125 11.03125 73.539062 10.78125 C 73.550781 10.117188 73.617188 9.464844 73.730469 8.824219 C 73.730469 8.820312 73.730469 8.820312 73.734375 8.816406 C 74.136719 6.707031 74.976562 5.09375 76.253906 3.980469 C 76.441406 3.816406 76.722656 3.835938 76.886719 4.023438 C 77.046875 4.207031 77.027344 4.492188 76.84375 4.652344 Z M 74.640625 13.390625 C 74.722656 13.875 74.835938 14.457031 74.976562 15.128906 C 75.027344 15.371094 74.875 15.609375 74.632812 15.660156 C 74.390625 15.710938 74.152344 15.558594 74.101562 15.316406 C 73.957031 14.628906 73.84375 14.039062 73.757812 13.539062 C 73.714844 13.296875 73.878906 13.066406 74.121094 13.023438 C 74.367188 12.980469 74.597656 13.144531 74.640625 13.390625 Z M 75.527344 17.855469 C 75.523438 18.195312 75.433594 18.488281 75.25 18.738281 C 75.246094 18.742188 75.246094 18.746094 75.242188 18.75 C 74.957031 19.117188 74.457031 19.226562 73.738281 19.078125 C 73.496094 19.027344 73.339844 18.789062 73.390625 18.546875 C 73.441406 18.304688 73.675781 18.148438 73.917969 18.199219 C 74.273438 18.273438 74.480469 18.273438 74.535156 18.203125 L 74.523438 18.214844 C 74.59375 18.117188 74.632812 17.996094 74.632812 17.847656 C 74.636719 17.597656 74.839844 17.402344 75.085938 17.402344 C 75.332031 17.40625 75.53125 17.609375 75.527344 17.855469 Z M 71.148438 18.199219 C 70.203125 17.894531 69.632812 17.738281 69.4375 17.730469 C 69.417969 17.730469 69.402344 17.730469 69.382812 17.726562 C 68.71875 17.628906 68.082031 17.664062 67.464844 17.835938 L 67.496094 17.824219 C 66.582031 18.160156 65.804688 18.714844 65.167969 19.488281 C 65.011719 19.679688 64.730469 19.707031 64.539062 19.550781 C 64.347656 19.390625 64.320312 19.109375 64.476562 18.917969 C 65.21875 18.019531 66.121094 17.375 67.1875 16.984375 C 67.199219 16.980469 67.210938 16.976562 67.222656 16.972656 C 67.960938 16.765625 68.726562 16.722656 69.515625 16.84375 L 69.464844 16.835938 C 69.746094 16.847656 70.398438 17.015625 71.421875 17.347656 C 71.660156 17.425781 71.789062 17.675781 71.710938 17.910156 C 71.636719 18.148438 71.382812 18.277344 71.148438 18.199219 Z M 63.929688 21.691406 C 63.902344 21.765625 63.875 21.835938 63.847656 21.910156 C 63.847656 21.914062 63.847656 21.917969 63.84375 21.921875 C 63.664062 22.386719 63.550781 22.851562 63.496094 23.3125 C 63.46875 23.558594 63.246094 23.734375 63 23.703125 C 62.753906 23.675781 62.578125 23.453125 62.605469 23.207031 C 62.667969 22.671875 62.804688 22.136719 63.011719 21.597656 L 63.007812 21.609375 C 63.035156 21.53125 63.0625 21.453125 63.09375 21.375 C 63.179688 21.140625 63.441406 21.027344 63.671875 21.113281 C 63.902344 21.203125 64.019531 21.460938 63.929688 21.691406 Z M 63.804688 25.738281 C 63.988281 26.238281 64.246094 26.734375 64.582031 27.234375 C 64.71875 27.4375 64.664062 27.714844 64.460938 27.855469 C 64.253906 27.992188 63.976562 27.9375 63.839844 27.730469 C 63.464844 27.175781 63.171875 26.617188 62.964844 26.050781 C 62.878906 25.820312 62.996094 25.5625 63.226562 25.476562 C 63.460938 25.390625 63.71875 25.507812 63.804688 25.738281 Z M 66.273438 29.179688 C 66.996094 29.863281 67.863281 30.542969 68.863281 31.21875 L 68.828125 31.199219 C 69.949219 31.808594 71.070312 32.371094 72.191406 32.886719 C 72.417969 32.988281 72.515625 33.253906 72.414062 33.480469 C 72.3125 33.703125 72.046875 33.804688 71.820312 33.699219 C 70.679688 33.179688 69.539062 32.605469 68.398438 31.984375 C 68.386719 31.976562 68.375 31.96875 68.363281 31.960938 C 67.320312 31.257812 66.417969 30.546875 65.660156 29.832031 C 65.480469 29.664062 65.472656 29.382812 65.640625 29.199219 C 65.808594 29.019531 66.09375 29.011719 66.273438 29.179688 Z M 74.636719 33.925781 C 75.191406 34.144531 75.75 34.351562 76.308594 34.546875 C 76.539062 34.625 76.664062 34.882812 76.582031 35.117188 C 76.5 35.347656 76.246094 35.472656 76.011719 35.390625 C 75.445312 35.191406 74.875 34.980469 74.308594 34.757812 C 74.078125 34.667969 73.964844 34.410156 74.054688 34.179688 C 74.148438 33.949219 74.40625 33.835938 74.636719 33.925781 Z M 78.839844 35.34375 C 79.410156 35.507812 79.980469 35.65625 80.550781 35.789062 C 80.789062 35.847656 80.9375 36.089844 80.882812 36.328125 C 80.824219 36.570312 80.582031 36.71875 80.34375 36.660156 C 79.761719 36.523438 79.179688 36.371094 78.597656 36.207031 C 78.359375 36.140625 78.222656 35.890625 78.289062 35.65625 C 78.355469 35.417969 78.601562 35.277344 78.839844 35.34375 Z M 83.152344 36.320312 C 85.5 36.71875 87.847656 36.90625 90.199219 36.875 C 90.449219 36.871094 90.652344 37.070312 90.652344 37.316406 C 90.65625 37.5625 90.460938 37.765625 90.210938 37.769531 C 87.804688 37.800781 85.402344 37.613281 83.003906 37.203125 C 82.757812 37.164062 82.59375 36.929688 82.636719 36.6875 C 82.679688 36.445312 82.910156 36.28125 83.152344 36.320312 Z M 92.851562 36.75 C 93.4375 36.703125 94.027344 36.644531 94.613281 36.570312 C 94.859375 36.539062 95.082031 36.710938 95.113281 36.957031 C 95.144531 37.203125 94.96875 37.425781 94.726562 37.457031 C 94.125 37.53125 93.523438 37.59375 92.925781 37.644531 C 92.675781 37.664062 92.460938 37.480469 92.441406 37.234375 C 92.421875 36.988281 92.605469 36.769531 92.851562 36.75 Z M 97.234375 36.152344 C 97.808594 36.039062 98.386719 35.914062 98.964844 35.777344 C 99.203125 35.722656 99.445312 35.871094 99.503906 36.109375 C 99.558594 36.351562 99.410156 36.59375 99.171875 36.648438 C 98.582031 36.789062 97.992188 36.917969 97.402344 37.03125 C 97.160156 37.078125 96.925781 36.917969 96.878906 36.675781 C 96.832031 36.433594 96.992188 36.199219 97.234375 36.152344 Z M 101.53125 35.085938 C 103.730469 34.421875 105.933594 33.570312 108.140625 32.535156 C 108.367188 32.429688 108.632812 32.527344 108.738281 32.75 C 108.84375 32.976562 108.746094 33.242188 108.523438 33.347656 C 106.277344 34.402344 104.03125 35.265625 101.789062 35.941406 C 101.554688 36.015625 101.304688 35.882812 101.234375 35.644531 C 101.160156 35.40625 101.296875 35.15625 101.53125 35.085938 Z M 110.527344 31.347656 C 111.046875 31.070312 111.566406 30.789062 112.085938 30.492188 C 112.300781 30.371094 112.574219 30.445312 112.699219 30.660156 C 112.820312 30.875 112.742188 31.148438 112.527344 31.269531 C 112 31.570312 111.472656 31.859375 110.949219 32.136719 C 110.730469 32.253906 110.457031 32.167969 110.34375 31.953125 C 110.226562 31.734375 110.308594 31.460938 110.527344 31.347656 Z M 114.375 29.128906 C 114.847656 28.835938 115.320312 28.53125 115.789062 28.21875 C 115.996094 28.085938 116.273438 28.140625 116.410156 28.347656 C 116.546875 28.554688 116.488281 28.832031 116.285156 28.96875 C 115.804688 29.285156 115.328125 29.589844 114.847656 29.890625 C 114.636719 30.019531 114.363281 29.957031 114.230469 29.746094 C 114.101562 29.535156 114.164062 29.261719 114.375 29.128906 Z M 64.613281 56.972656 C 66.875 56.144531 69.003906 55.132812 71.003906 53.945312 C 71.214844 53.820312 71.492188 53.890625 71.617188 54.101562 C 71.742188 54.316406 71.671875 54.589844 71.460938 54.714844 C 69.414062 55.933594 67.234375 56.964844 64.921875 57.8125 C 64.6875 57.898438 64.429688 57.78125 64.347656 57.546875 C 64.261719 57.316406 64.378906 57.058594 64.613281 56.972656 Z M 64.613281 56.972656 " fill-opacity="1" fill-rule="nonzero"/></g></g></g><g fill="#05396e" fill-opacity="1"><g transform="translate(12.648964, 80.14722)"><g><path d="M 7.78125 -19.71875 C 6.28125 -19.570312 4.984375 -19.804688 3.890625 -20.421875 C 2.796875 -21.046875 1.9375 -21.914062 1.3125 -23.03125 C 0.6875 -24.15625 0.3125 -25.375 0.1875 -26.6875 C 0 -28.644531 0.285156 -30.617188 1.046875 -32.609375 C 1.804688 -34.597656 3.054688 -36.460938 4.796875 -38.203125 C 6.535156 -39.953125 8.804688 -41.425781 11.609375 -42.625 C 14.410156 -43.832031 17.773438 -44.625 21.703125 -45 C 23.679688 -45.1875 25.390625 -45.3125 26.828125 -45.375 C 28.273438 -45.4375 29.601562 -45.488281 30.8125 -45.53125 C 32.03125 -45.570312 33.265625 -45.648438 34.515625 -45.765625 C 36.484375 -45.953125 38 -46.195312 39.0625 -46.5 C 40.125 -46.8125 41.003906 -47 41.703125 -47.0625 C 42.546875 -47.144531 43.128906 -47.003906 43.453125 -46.640625 C 43.785156 -46.273438 43.988281 -45.726562 44.0625 -45 C 44.195312 -43.601562 43.984375 -42.25 43.421875 -40.9375 C 42.859375 -39.632812 41.941406 -38.535156 40.671875 -37.640625 C 39.410156 -36.742188 37.789062 -36.203125 35.8125 -36.015625 C 34.488281 -35.890625 33.328125 -35.925781 32.328125 -36.125 C 31.335938 -36.320312 30.351562 -36.5625 29.375 -36.84375 C 28.40625 -37.125 27.320312 -37.351562 26.125 -37.53125 C 24.925781 -37.71875 23.46875 -37.726562 21.75 -37.5625 C 19.582031 -37.351562 17.75 -36.863281 16.25 -36.09375 C 14.75 -35.320312 13.632812 -34.394531 12.90625 -33.3125 C 12.175781 -32.226562 11.867188 -31.101562 11.984375 -29.9375 C 12.054688 -29.195312 12.316406 -28.597656 12.765625 -28.140625 C 13.210938 -27.691406 13.726562 -27.5 14.3125 -27.5625 C 14.625 -26.988281 14.707031 -26.28125 14.5625 -25.4375 C 14.425781 -24.59375 14.070312 -23.757812 13.5 -22.9375 C 12.9375 -22.125 12.171875 -21.414062 11.203125 -20.8125 C 10.242188 -20.207031 9.101562 -19.84375 7.78125 -19.71875 Z M 8.140625 1.546875 C 5.609375 1.785156 3.507812 1.53125 1.84375 0.78125 C 0.1875 0.0390625 -1.0625 -1.003906 -1.90625 -2.359375 C -2.757812 -3.722656 -3.257812 -5.15625 -3.40625 -6.65625 C -3.550781 -8.15625 -3.382812 -9.617188 -2.90625 -11.046875 C -2.4375 -12.484375 -1.691406 -13.6875 -0.671875 -14.65625 C 0.347656 -15.625 1.59375 -16.179688 3.0625 -16.328125 C 3.601562 -16.378906 3.894531 -16.1875 3.9375 -15.75 C 4.050781 -14.539062 4.617188 -13.601562 5.640625 -12.9375 C 6.671875 -12.28125 7.972656 -12.023438 9.546875 -12.171875 C 10.679688 -12.285156 11.890625 -12.722656 13.171875 -13.484375 C 14.453125 -14.242188 15.648438 -15.367188 16.765625 -16.859375 C 17.878906 -18.359375 18.769531 -20.269531 19.4375 -22.59375 C 19.800781 -23.882812 20.164062 -25.21875 20.53125 -26.59375 C 20.90625 -27.976562 21.269531 -29.28125 21.625 -30.5 C 21.914062 -31.5 22.335938 -32.222656 22.890625 -32.671875 C 23.453125 -33.128906 24.140625 -33.398438 24.953125 -33.484375 C 26.160156 -33.597656 26.984375 -33.410156 27.421875 -32.921875 C 27.859375 -32.429688 27.972656 -31.707031 27.765625 -30.75 C 27.117188 -27.769531 26.476562 -24.960938 25.84375 -22.328125 C 25.207031 -19.703125 24.492188 -17.128906 23.703125 -14.609375 C 22.078125 -9.441406 19.9375 -5.535156 17.28125 -2.890625 C 14.625 -0.253906 11.578125 1.222656 8.140625 1.546875 Z M 8.140625 1.546875 "/></g></g></g><g fill="#05396e" fill-opacity="1"><g transform="translate(41.461767, 77.420631)"><g><path d="M 21.5625 -17.25 C 21.8125 -17.707031 22.179688 -17.894531 22.671875 -17.8125 C 23.160156 -17.738281 23.578125 -17.53125 23.921875 -17.1875 C 24.273438 -16.851562 24.359375 -16.488281 24.171875 -16.09375 C 23.847656 -15.476562 23.484375 -14.585938 23.078125 -13.421875 C 22.671875 -12.253906 22.171875 -11.003906 21.578125 -9.671875 C 20.992188 -8.335938 20.28125 -7.046875 19.4375 -5.796875 C 18.59375 -4.546875 17.609375 -3.5 16.484375 -2.65625 C 15.359375 -1.820312 14.039062 -1.332031 12.53125 -1.1875 C 11.03125 -1.039062 9.8125 -1.210938 8.875 -1.703125 C 7.945312 -2.191406 7.242188 -2.863281 6.765625 -3.71875 C 6.296875 -4.582031 6.019531 -5.46875 5.9375 -6.375 C 5.8125 -7.664062 5.882812 -8.953125 6.15625 -10.234375 C 6.425781 -11.515625 6.757812 -12.75 7.15625 -13.9375 C 7.5625 -15.125 7.914062 -16.210938 8.21875 -17.203125 C 8.519531 -18.191406 8.640625 -19.019531 8.578125 -19.6875 C 8.546875 -19.976562 8.289062 -20.382812 7.8125 -20.90625 C 7.332031 -21.4375 6.523438 -21.851562 5.390625 -22.15625 C 5.128906 -21.382812 4.8125 -20.492188 4.4375 -19.484375 C 4.070312 -18.472656 3.707031 -17.472656 3.34375 -16.484375 C 2.976562 -15.503906 2.675781 -14.691406 2.4375 -14.046875 C 2.257812 -13.546875 1.914062 -13.335938 1.40625 -13.421875 C 0.90625 -13.503906 0.472656 -13.734375 0.109375 -14.109375 C -0.253906 -14.484375 -0.34375 -14.847656 -0.15625 -15.203125 C 0.28125 -15.960938 0.742188 -17.078125 1.234375 -18.546875 C 1.722656 -20.023438 2.148438 -21.414062 2.515625 -22.71875 C 1.941406 -22.84375 1.46875 -23.109375 1.09375 -23.515625 C 0.71875 -23.921875 0.484375 -24.625 0.390625 -25.625 C 0.316406 -26.382812 0.445312 -27.160156 0.78125 -27.953125 C 1.125 -28.742188 1.632812 -29.429688 2.3125 -30.015625 C 2.988281 -30.597656 3.828125 -30.9375 4.828125 -31.03125 C 6.546875 -31.1875 8.234375 -31.007812 9.890625 -30.5 C 11.554688 -30 12.953125 -29.289062 14.078125 -28.375 C 15.203125 -27.46875 15.8125 -26.519531 15.90625 -25.53125 C 16 -24.507812 15.894531 -23.519531 15.59375 -22.5625 C 15.289062 -21.601562 14.984375 -20.628906 14.671875 -19.640625 C 14.359375 -18.648438 14.253906 -17.59375 14.359375 -16.46875 C 14.429688 -15.6875 14.75 -15.0625 15.3125 -14.59375 C 15.882812 -14.125 16.796875 -13.945312 18.046875 -14.0625 C 18.878906 -14.144531 19.554688 -14.476562 20.078125 -15.0625 C 20.597656 -15.65625 21.09375 -16.382812 21.5625 -17.25 Z M 21.5625 -17.25 "/></g></g></g><g fill="#05396e" fill-opacity="1"><g transform="translate(63.181336, 75.365283)"><g><path d="M 5.828125 -0.546875 C 3.953125 -0.367188 2.46875 -1.003906 1.375 -2.453125 C 0.28125 -3.910156 -0.378906 -5.867188 -0.609375 -8.328125 C -0.753906 -9.859375 -0.71875 -11.507812 -0.5 -13.28125 C -0.28125 -15.0625 0.117188 -16.832031 0.703125 -18.59375 C 1.296875 -20.351562 2.097656 -21.972656 3.109375 -23.453125 C 4.117188 -24.929688 5.332031 -26.15625 6.75 -27.125 C 8.175781 -28.101562 9.84375 -28.679688 11.75 -28.859375 C 12.84375 -28.960938 13.703125 -28.941406 14.328125 -28.796875 C 14.953125 -28.648438 15.429688 -28.445312 15.765625 -28.1875 C 16.109375 -27.925781 16.398438 -27.703125 16.640625 -27.515625 C 16.878906 -27.335938 17.179688 -27.265625 17.546875 -27.296875 C 18.171875 -27.359375 18.660156 -27.578125 19.015625 -27.953125 C 19.378906 -28.335938 19.773438 -28.726562 20.203125 -29.125 C 20.640625 -29.519531 21.285156 -29.757812 22.140625 -29.84375 C 22.867188 -29.90625 23.382812 -29.765625 23.6875 -29.421875 C 24 -29.078125 24.1875 -28.597656 24.25 -27.984375 C 24.34375 -26.953125 24.15625 -25.90625 23.6875 -24.84375 C 23.21875 -23.78125 22.75 -22.421875 22.28125 -20.765625 C 21.550781 -18.648438 21.351562 -17.070312 21.6875 -16.03125 C 22.03125 -14.988281 22.8125 -14.523438 24.03125 -14.640625 C 24.976562 -14.722656 25.773438 -15.046875 26.421875 -15.609375 C 27.078125 -16.179688 27.640625 -16.9375 28.109375 -17.875 C 28.359375 -18.332031 28.71875 -18.519531 29.1875 -18.4375 C 29.65625 -18.351562 30.0625 -18.140625 30.40625 -17.796875 C 30.757812 -17.460938 30.859375 -17.101562 30.703125 -16.71875 C 30.171875 -15.375 29.601562 -13.882812 29 -12.25 C 28.394531 -10.625 27.703125 -9.050781 26.921875 -7.53125 C 26.140625 -6.019531 25.207031 -4.738281 24.125 -3.6875 C 23.039062 -2.644531 21.722656 -2.050781 20.171875 -1.90625 C 18.273438 -1.726562 16.859375 -2.375 15.921875 -3.84375 C 14.992188 -5.3125 14.582031 -7.195312 14.6875 -9.5 L 14.46875 -9.46875 C 13.582031 -7.125 12.40625 -5.097656 10.9375 -3.390625 C 9.46875 -1.679688 7.765625 -0.734375 5.828125 -0.546875 Z M 10.25 -12.46875 C 11.195312 -12.550781 12.003906 -12.898438 12.671875 -13.515625 C 13.335938 -14.128906 13.832031 -14.851562 14.15625 -15.6875 C 14.488281 -16.519531 14.617188 -17.316406 14.546875 -18.078125 C 14.453125 -18.992188 14.125 -19.679688 13.5625 -20.140625 C 13.007812 -20.597656 12.289062 -20.785156 11.40625 -20.703125 C 10.457031 -20.617188 9.65625 -20.285156 9 -19.703125 C 8.351562 -19.128906 7.875 -18.429688 7.5625 -17.609375 C 7.257812 -16.785156 7.144531 -15.972656 7.21875 -15.171875 C 7.300781 -14.242188 7.613281 -13.539062 8.15625 -13.0625 C 8.707031 -12.582031 9.40625 -12.382812 10.25 -12.46875 Z M 10.25 -12.46875 "/></g></g></g><g fill="#05396e" fill-opacity="1"><g transform="translate(91.444274, 72.690729)"><g><path d="M 24.375 -17.515625 C 24.5625 -17.859375 24.894531 -18.007812 25.375 -17.96875 C 25.851562 -17.925781 26.28125 -17.765625 26.65625 -17.484375 C 27.039062 -17.203125 27.144531 -16.828125 26.96875 -16.359375 C 26.5625 -15.222656 26 -14.023438 25.28125 -12.765625 C 24.5625 -11.515625 23.628906 -10.4375 22.484375 -9.53125 C 21.335938 -8.625 19.863281 -8.085938 18.0625 -7.921875 C 17.101562 -7.828125 16.210938 -8.019531 15.390625 -8.5 C 14.222656 -6.394531 12.90625 -4.609375 11.4375 -3.140625 C 9.96875 -1.671875 8.390625 -0.859375 6.703125 -0.703125 C 5.242188 -0.554688 4.003906 -0.894531 2.984375 -1.71875 C 1.960938 -2.539062 1.164062 -3.664062 0.59375 -5.09375 C 0.03125 -6.53125 -0.320312 -8.132812 -0.46875 -9.90625 C -0.613281 -11.6875 -0.546875 -13.445312 -0.265625 -15.1875 C -0.0664062 -16.632812 0.222656 -18.117188 0.609375 -19.640625 C 1.003906 -21.160156 1.472656 -22.566406 2.015625 -23.859375 C 2.566406 -25.148438 3.160156 -26.195312 3.796875 -27 C 4.441406 -27.800781 5.148438 -28.238281 5.921875 -28.3125 C 6.460938 -28.363281 6.894531 -28.234375 7.21875 -27.921875 C 7.550781 -27.617188 7.757812 -27.066406 7.84375 -26.265625 C 7.9375 -25.234375 7.828125 -24.09375 7.515625 -22.84375 C 7.203125 -21.59375 6.898438 -20.332031 6.609375 -19.0625 C 6.328125 -17.800781 6.238281 -16.625 6.34375 -15.53125 C 6.445312 -14.5 6.78125 -13.695312 7.34375 -13.125 C 7.914062 -12.550781 8.773438 -12.320312 9.921875 -12.4375 C 11.085938 -12.539062 11.957031 -12.878906 12.53125 -13.453125 C 13.113281 -14.023438 13.515625 -14.523438 13.734375 -14.953125 C 13.460938 -15.773438 13.234375 -16.601562 13.046875 -17.4375 C 12.859375 -18.269531 12.722656 -19.125 12.640625 -20 C 12.484375 -21.613281 12.535156 -23.113281 12.796875 -24.5 C 13.054688 -25.894531 13.554688 -27.046875 14.296875 -27.953125 C 15.046875 -28.859375 16.046875 -29.375 17.296875 -29.5 C 18.835938 -29.644531 19.867188 -29.09375 20.390625 -27.84375 C 20.910156 -26.59375 20.984375 -24.820312 20.609375 -22.53125 C 20.242188 -20.238281 19.441406 -17.578125 18.203125 -14.546875 C 18.773438 -14.367188 19.445312 -14.316406 20.21875 -14.390625 C 21.03125 -14.460938 21.78125 -14.742188 22.46875 -15.234375 C 23.15625 -15.734375 23.789062 -16.492188 24.375 -17.515625 Z M 24.375 -17.515625 "/></g></g></g><g fill="#05396e" fill-opacity="1"><g transform="translate(115.968142, 70.370007)"><g><path d="M 10.34375 -0.984375 C 8.132812 -0.773438 6.273438 -1.097656 4.765625 -1.953125 C 3.265625 -2.804688 2.097656 -4.019531 1.265625 -5.59375 C 0.429688 -7.164062 -0.0625 -8.929688 -0.21875 -10.890625 C -0.382812 -12.847656 -0.234375 -14.835938 0.234375 -16.859375 C 0.703125 -18.878906 1.484375 -20.765625 2.578125 -22.515625 C 3.671875 -24.273438 5.0625 -25.734375 6.75 -26.890625 C 8.4375 -28.046875 10.394531 -28.726562 12.625 -28.9375 C 14.34375 -29.101562 15.773438 -28.914062 16.921875 -28.375 C 18.066406 -27.84375 18.945312 -27.066406 19.5625 -26.046875 C 20.175781 -25.035156 20.539062 -23.921875 20.65625 -22.703125 C 20.78125 -21.390625 20.535156 -20.035156 19.921875 -18.640625 C 19.304688 -17.253906 18.378906 -16.066406 17.140625 -15.078125 C 15.910156 -14.097656 14.398438 -13.519531 12.609375 -13.34375 C 11.835938 -13.269531 11.078125 -13.25 10.328125 -13.28125 C 9.585938 -13.320312 8.890625 -13.5 8.234375 -13.8125 C 8.035156 -13.90625 7.832031 -13.894531 7.625 -13.78125 C 7.414062 -13.675781 7.332031 -13.4375 7.375 -13.0625 C 7.457031 -12.113281 8.082031 -11.441406 9.25 -11.046875 C 10.414062 -10.660156 11.785156 -10.539062 13.359375 -10.6875 C 15.222656 -10.863281 17.109375 -11.523438 19.015625 -12.671875 C 20.921875 -13.828125 22.410156 -15.414062 23.484375 -17.4375 C 23.742188 -17.894531 24.113281 -18.082031 24.59375 -18 C 25.082031 -17.914062 25.5 -17.707031 25.84375 -17.375 C 26.195312 -17.039062 26.273438 -16.675781 26.078125 -16.28125 C 24.085938 -11.582031 21.765625 -7.929688 19.109375 -5.328125 C 16.453125 -2.734375 13.53125 -1.285156 10.34375 -0.984375 Z M 10.78125 -17.328125 C 11.84375 -17.421875 12.644531 -17.835938 13.1875 -18.578125 C 13.726562 -19.316406 13.960938 -20.03125 13.890625 -20.71875 C 13.835938 -21.34375 13.582031 -21.859375 13.125 -22.265625 C 12.664062 -22.671875 12.007812 -22.832031 11.15625 -22.75 C 10.101562 -22.644531 9.296875 -22.234375 8.734375 -21.515625 C 8.171875 -20.796875 7.921875 -20.070312 7.984375 -19.34375 C 8.046875 -18.757812 8.304688 -18.253906 8.765625 -17.828125 C 9.234375 -17.410156 9.90625 -17.242188 10.78125 -17.328125 Z M 10.78125 -17.328125 "/></g></g></g><g fill="#05396e" fill-opacity="1"><g transform="translate(139.61223, 68.132539)"><g><path d="M 4.671875 -0.4375 C 2.722656 -0.257812 1.3125 -0.675781 0.4375 -1.6875 C -0.425781 -2.695312 -0.929688 -4.003906 -1.078125 -5.609375 C -1.210938 -7.003906 -1.179688 -8.539062 -0.984375 -10.21875 C -0.796875 -11.90625 -0.5 -13.566406 -0.09375 -15.203125 C 1.257812 -20.722656 2.414062 -25.359375 3.375 -29.109375 C 4.332031 -32.867188 5.328125 -35.734375 6.359375 -37.703125 C 7.398438 -39.671875 8.65625 -40.722656 10.125 -40.859375 C 11.257812 -40.960938 12.007812 -40.597656 12.375 -39.765625 C 12.75 -38.929688 12.601562 -37.609375 11.9375 -35.796875 C 10.707031 -32.609375 9.671875 -29.675781 8.828125 -27 C 7.992188 -24.320312 7.375 -21.796875 6.96875 -19.421875 C 6.789062 -18.316406 6.679688 -17.273438 6.640625 -16.296875 C 6.609375 -15.316406 6.800781 -14.539062 7.21875 -13.96875 C 7.644531 -13.394531 8.410156 -13.160156 9.515625 -13.265625 C 10.472656 -13.347656 11.285156 -13.671875 11.953125 -14.234375 C 12.617188 -14.804688 13.203125 -15.566406 13.703125 -16.515625 C 13.953125 -16.960938 14.316406 -17.144531 14.796875 -17.0625 C 15.285156 -16.988281 15.703125 -16.785156 16.046875 -16.453125 C 16.398438 -16.117188 16.484375 -15.753906 16.296875 -15.359375 C 15.984375 -14.734375 15.625 -13.835938 15.21875 -12.671875 C 14.820312 -11.503906 14.320312 -10.253906 13.71875 -8.921875 C 13.125 -7.585938 12.40625 -6.296875 11.5625 -5.046875 C 10.71875 -3.804688 9.734375 -2.765625 8.609375 -1.921875 C 7.484375 -1.078125 6.171875 -0.582031 4.671875 -0.4375 Z M 4.671875 -0.4375 "/></g></g></g><g fill="#05396e" fill-opacity="1"><g transform="translate(153.468771, 66.821279)"><g><path d="M 26.015625 -17.671875 C 26.203125 -18.015625 26.535156 -18.164062 27.015625 -18.125 C 27.503906 -18.082031 27.9375 -17.921875 28.3125 -17.640625 C 28.6875 -17.359375 28.785156 -16.984375 28.609375 -16.515625 C 28.210938 -15.378906 27.648438 -14.179688 26.921875 -12.921875 C 26.203125 -11.671875 25.269531 -10.59375 24.125 -9.6875 C 22.976562 -8.78125 21.503906 -8.242188 19.703125 -8.078125 L 19.046875 -8.015625 C 17.867188 -6.023438 16.390625 -4.378906 14.609375 -3.078125 C 12.828125 -1.773438 10.90625 -1.03125 8.84375 -0.84375 C 6.394531 -0.601562 4.285156 -1.234375 2.515625 -2.734375 C 0.742188 -4.234375 -0.273438 -6.410156 -0.546875 -9.265625 C -0.742188 -11.316406 -0.566406 -13.453125 -0.015625 -15.671875 C 0.523438 -17.890625 1.390625 -19.96875 2.578125 -21.90625 C 3.773438 -23.84375 5.234375 -25.453125 6.953125 -26.734375 C 8.679688 -28.015625 10.644531 -28.757812 12.84375 -28.96875 C 14.34375 -29.101562 15.726562 -28.925781 17 -28.4375 C 18.269531 -27.945312 19.328125 -27.035156 20.171875 -25.703125 C 21.015625 -24.378906 21.546875 -22.5625 21.765625 -20.25 C 21.941406 -18.3125 21.847656 -16.394531 21.484375 -14.5 L 21.859375 -14.546875 C 22.671875 -14.617188 23.421875 -14.898438 24.109375 -15.390625 C 24.796875 -15.890625 25.429688 -16.648438 26.015625 -17.671875 Z M 10.921875 -12.53125 C 11.828125 -12.613281 12.601562 -12.960938 13.25 -13.578125 C 13.894531 -14.191406 14.378906 -14.910156 14.703125 -15.734375 C 15.035156 -16.566406 15.164062 -17.363281 15.09375 -18.125 C 15.007812 -18.9375 14.703125 -19.597656 14.171875 -20.109375 C 13.648438 -20.628906 12.859375 -20.84375 11.796875 -20.75 C 10.910156 -20.664062 10.148438 -20.332031 9.515625 -19.75 C 8.890625 -19.175781 8.421875 -18.476562 8.109375 -17.65625 C 7.804688 -16.832031 7.691406 -16.019531 7.765625 -15.21875 C 7.835938 -14.40625 8.125 -13.726562 8.625 -13.1875 C 9.125 -12.644531 9.890625 -12.425781 10.921875 -12.53125 Z M 10.921875 -12.53125 "/></g></g></g><g fill="#05396e" fill-opacity="1"><g transform="translate(179.642224, 64.344454)"><g><path d="M 26.671875 -17.734375 C 26.867188 -18.078125 27.207031 -18.226562 27.6875 -18.1875 C 28.164062 -18.144531 28.59375 -17.984375 28.96875 -17.703125 C 29.351562 -17.421875 29.453125 -17.046875 29.265625 -16.578125 C 28.859375 -15.441406 28.296875 -14.25 27.578125 -13 C 26.867188 -11.75 25.9375 -10.664062 24.78125 -9.75 C 23.632812 -8.84375 22.164062 -8.304688 20.375 -8.140625 L 20.046875 -8.109375 C 18.941406 -6.117188 17.585938 -4.484375 15.984375 -3.203125 C 14.378906 -1.921875 12.695312 -1.195312 10.9375 -1.03125 C 9.363281 -0.882812 8.023438 -1.238281 6.921875 -2.09375 C 5.828125 -2.957031 5.359375 -4.503906 5.515625 -6.734375 C 5.566406 -7.367188 5.34375 -7.679688 4.84375 -7.671875 C 4.351562 -7.660156 4.066406 -7.300781 3.984375 -6.59375 C 3.773438 -4.53125 3.550781 -2.472656 3.3125 -0.421875 C 3.082031 1.628906 2.78125 3.523438 2.40625 5.265625 C 2.039062 7.003906 1.554688 8.410156 0.953125 9.484375 C 0.347656 10.554688 -0.441406 11.140625 -1.421875 11.234375 C -2.785156 11.359375 -3.800781 11.117188 -4.46875 10.515625 C -5.132812 9.910156 -5.523438 9.003906 -5.640625 7.796875 C -5.804688 6.109375 -5.472656 3.859375 -4.640625 1.046875 C -3.816406 -1.765625 -2.882812 -5.03125 -1.84375 -8.75 C -1.550781 -9.738281 -1.257812 -10.773438 -0.96875 -11.859375 C -0.6875 -12.941406 -0.414062 -14.054688 -0.15625 -15.203125 C 0.46875 -17.921875 0.992188 -20.117188 1.421875 -21.796875 C 1.859375 -23.484375 2.265625 -24.78125 2.640625 -25.6875 C 3.015625 -26.59375 3.425781 -27.234375 3.875 -27.609375 C 4.320312 -27.984375 4.894531 -28.207031 5.59375 -28.28125 C 6.539062 -28.363281 7.175781 -28.234375 7.5 -27.890625 C 7.832031 -27.554688 7.988281 -27.128906 7.96875 -26.609375 C 7.9375 -26.191406 8.128906 -25.941406 8.546875 -25.859375 C 8.960938 -25.773438 9.367188 -25.972656 9.765625 -26.453125 C 10.617188 -27.484375 11.476562 -28.171875 12.34375 -28.515625 C 13.21875 -28.867188 14.082031 -29.082031 14.9375 -29.15625 C 17.09375 -29.363281 18.898438 -28.785156 20.359375 -27.421875 C 21.828125 -26.054688 22.6875 -24.078125 22.9375 -21.484375 C 23.050781 -20.304688 23.066406 -19.140625 22.984375 -17.984375 C 22.898438 -16.828125 22.75 -15.703125 22.53125 -14.609375 C 23.332031 -14.679688 24.078125 -14.960938 24.765625 -15.453125 C 25.460938 -15.953125 26.097656 -16.710938 26.671875 -17.734375 Z M 10.921875 -12.53125 C 11.828125 -12.613281 12.601562 -12.960938 13.25 -13.578125 C 13.894531 -14.191406 14.378906 -14.910156 14.703125 -15.734375 C 15.035156 -16.566406 15.164062 -17.363281 15.09375 -18.125 C 15.007812 -18.9375 14.703125 -19.597656 14.171875 -20.109375 C 13.648438 -20.628906 12.859375 -20.84375 11.796875 -20.75 C 10.910156 -20.664062 10.148438 -20.332031 9.515625 -19.75 C 8.890625 -19.175781 8.421875 -18.476562 8.109375 -17.65625 C 7.804688 -16.832031 7.691406 -16.019531 7.765625 -15.21875 C 7.835938 -14.40625 8.125 -13.726562 8.625 -13.1875 C 9.125 -12.644531 9.890625 -12.425781 10.921875 -12.53125 Z M 10.921875 -12.53125 "/></g></g></g><g fill="#05396e" fill-opacity="1"><g transform="translate(206.475525, 61.805188)"><g><path d="M 10.34375 -0.984375 C 8.132812 -0.773438 6.273438 -1.097656 4.765625 -1.953125 C 3.265625 -2.804688 2.097656 -4.019531 1.265625 -5.59375 C 0.429688 -7.164062 -0.0625 -8.929688 -0.21875 -10.890625 C -0.382812 -12.847656 -0.234375 -14.835938 0.234375 -16.859375 C 0.703125 -18.878906 1.484375 -20.765625 2.578125 -22.515625 C 3.671875 -24.273438 5.0625 -25.734375 6.75 -26.890625 C 8.4375 -28.046875 10.394531 -28.726562 12.625 -28.9375 C 14.34375 -29.101562 15.773438 -28.914062 16.921875 -28.375 C 18.066406 -27.84375 18.945312 -27.066406 19.5625 -26.046875 C 20.175781 -25.035156 20.539062 -23.921875 20.65625 -22.703125 C 20.78125 -21.390625 20.535156 -20.035156 19.921875 -18.640625 C 19.304688 -17.253906 18.378906 -16.066406 17.140625 -15.078125 C 15.910156 -14.097656 14.398438 -13.519531 12.609375 -13.34375 C 11.835938 -13.269531 11.078125 -13.25 10.328125 -13.28125 C 9.585938 -13.320312 8.890625 -13.5 8.234375 -13.8125 C 8.035156 -13.90625 7.832031 -13.894531 7.625 -13.78125 C 7.414062 -13.675781 7.332031 -13.4375 7.375 -13.0625 C 7.457031 -12.113281 8.082031 -11.441406 9.25 -11.046875 C 10.414062 -10.660156 11.785156 -10.539062 13.359375 -10.6875 C 15.222656 -10.863281 17.109375 -11.523438 19.015625 -12.671875 C 20.921875 -13.828125 22.410156 -15.414062 23.484375 -17.4375 C 23.742188 -17.894531 24.113281 -18.082031 24.59375 -18 C 25.082031 -17.914062 25.5 -17.707031 25.84375 -17.375 C 26.195312 -17.039062 26.273438 -16.675781 26.078125 -16.28125 C 24.085938 -11.582031 21.765625 -7.929688 19.109375 -5.328125 C 16.453125 -2.734375 13.53125 -1.285156 10.34375 -0.984375 Z M 10.78125 -17.328125 C 11.84375 -17.421875 12.644531 -17.835938 13.1875 -18.578125 C 13.726562 -19.316406 13.960938 -20.03125 13.890625 -20.71875 C 13.835938 -21.34375 13.582031 -21.859375 13.125 -22.265625 C 12.664062 -22.671875 12.007812 -22.832031 11.15625 -22.75 C 10.101562 -22.644531 9.296875 -22.234375 8.734375 -21.515625 C 8.171875 -20.796875 7.921875 -20.070312 7.984375 -19.34375 C 8.046875 -18.757812 8.304688 -18.253906 8.765625 -17.828125 C 9.234375 -17.410156 9.90625 -17.242188 10.78125 -17.328125 Z M 10.78125 -17.328125 "/></g></g></g><g fill="#05396e" fill-opacity="1"><g transform="translate(230.119622, 59.56772)"><g><path d="M 21.5625 -17.25 C 21.8125 -17.707031 22.179688 -17.894531 22.671875 -17.8125 C 23.160156 -17.738281 23.578125 -17.53125 23.921875 -17.1875 C 24.273438 -16.851562 24.359375 -16.488281 24.171875 -16.09375 C 23.847656 -15.476562 23.484375 -14.585938 23.078125 -13.421875 C 22.671875 -12.253906 22.171875 -11.003906 21.578125 -9.671875 C 20.992188 -8.335938 20.28125 -7.046875 19.4375 -5.796875 C 18.59375 -4.546875 17.609375 -3.5 16.484375 -2.65625 C 15.359375 -1.820312 14.039062 -1.332031 12.53125 -1.1875 C 11.03125 -1.039062 9.8125 -1.210938 8.875 -1.703125 C 7.945312 -2.191406 7.242188 -2.863281 6.765625 -3.71875 C 6.296875 -4.582031 6.019531 -5.46875 5.9375 -6.375 C 5.8125 -7.664062 5.882812 -8.953125 6.15625 -10.234375 C 6.425781 -11.515625 6.757812 -12.75 7.15625 -13.9375 C 7.5625 -15.125 7.914062 -16.210938 8.21875 -17.203125 C 8.519531 -18.191406 8.640625 -19.019531 8.578125 -19.6875 C 8.546875 -19.976562 8.289062 -20.382812 7.8125 -20.90625 C 7.332031 -21.4375 6.523438 -21.851562 5.390625 -22.15625 C 5.128906 -21.382812 4.8125 -20.492188 4.4375 -19.484375 C 4.070312 -18.472656 3.707031 -17.472656 3.34375 -16.484375 C 2.976562 -15.503906 2.675781 -14.691406 2.4375 -14.046875 C 2.257812 -13.546875 1.914062 -13.335938 1.40625 -13.421875 C 0.90625 -13.503906 0.472656 -13.734375 0.109375 -14.109375 C -0.253906 -14.484375 -0.34375 -14.847656 -0.15625 -15.203125 C 0.28125 -15.960938 0.742188 -17.078125 1.234375 -18.546875 C 1.722656 -20.023438 2.148438 -21.414062 2.515625 -22.71875 C 1.941406 -22.84375 1.46875 -23.109375 1.09375 -23.515625 C 0.71875 -23.921875 0.484375 -24.625 0.390625 -25.625 C 0.316406 -26.382812 0.445312 -27.160156 0.78125 -27.953125 C 1.125 -28.742188 1.632812 -29.429688 2.3125 -30.015625 C 2.988281 -30.597656 3.828125 -30.9375 4.828125 -31.03125 C 6.546875 -31.1875 8.234375 -31.007812 9.890625 -30.5 C 11.554688 -30 12.953125 -29.289062 14.078125 -28.375 C 15.203125 -27.46875 15.8125 -26.519531 15.90625 -25.53125 C 16 -24.507812 15.894531 -23.519531 15.59375 -22.5625 C 15.289062 -21.601562 14.984375 -20.628906 14.671875 -19.640625 C 14.359375 -18.648438 14.253906 -17.59375 14.359375 -16.46875 C 14.429688 -15.6875 14.75 -15.0625 15.3125 -14.59375 C 15.882812 -14.125 16.796875 -13.945312 18.046875 -14.0625 C 18.878906 -14.144531 19.554688 -14.476562 20.078125 -15.0625 C 20.597656 -15.65625 21.09375 -16.382812 21.5625 -17.25 Z M 21.5625 -17.25 "/></g></g></g><g fill="#a2d0ff" fill-opacity="1"><g transform="translate(8.309962, 77.581744)"><g><path d="M 7.78125 -19.71875 C 6.28125 -19.570312 4.984375 -19.804688 3.890625 -20.421875 C 2.796875 -21.046875 1.9375 -21.914062 1.3125 -23.03125 C 0.6875 -24.15625 0.3125 -25.375 0.1875 -26.6875 C 0 -28.644531 0.285156 -30.617188 1.046875 -32.609375 C 1.804688 -34.597656 3.054688 -36.460938 4.796875 -38.203125 C 6.535156 -39.953125 8.804688 -41.425781 11.609375 -42.625 C 14.410156 -43.832031 17.773438 -44.625 21.703125 -45 C 23.679688 -45.1875 25.390625 -45.3125 26.828125 -45.375 C 28.273438 -45.4375 29.601562 -45.488281 30.8125 -45.53125 C 32.03125 -45.570312 33.265625 -45.648438 34.515625 -45.765625 C 36.484375 -45.953125 38 -46.195312 39.0625 -46.5 C 40.125 -46.8125 41.003906 -47 41.703125 -47.0625 C 42.546875 -47.144531 43.128906 -47.003906 43.453125 -46.640625 C 43.785156 -46.273438 43.988281 -45.726562 44.0625 -45 C 44.195312 -43.601562 43.984375 -42.25 43.421875 -40.9375 C 42.859375 -39.632812 41.941406 -38.535156 40.671875 -37.640625 C 39.410156 -36.742188 37.789062 -36.203125 35.8125 -36.015625 C 34.488281 -35.890625 33.328125 -35.925781 32.328125 -36.125 C 31.335938 -36.320312 30.351562 -36.5625 29.375 -36.84375 C 28.40625 -37.125 27.320312 -37.351562 26.125 -37.53125 C 24.925781 -37.71875 23.46875 -37.726562 21.75 -37.5625 C 19.582031 -37.351562 17.75 -36.863281 16.25 -36.09375 C 14.75 -35.320312 13.632812 -34.394531 12.90625 -33.3125 C 12.175781 -32.226562 11.867188 -31.101562 11.984375 -29.9375 C 12.054688 -29.195312 12.316406 -28.597656 12.765625 -28.140625 C 13.210938 -27.691406 13.726562 -27.5 14.3125 -27.5625 C 14.625 -26.988281 14.707031 -26.28125 14.5625 -25.4375 C 14.425781 -24.59375 14.070312 -23.757812 13.5 -22.9375 C 12.9375 -22.125 12.171875 -21.414062 11.203125 -20.8125 C 10.242188 -20.207031 9.101562 -19.84375 7.78125 -19.71875 Z M 8.140625 1.546875 C 5.609375 1.785156 3.507812 1.53125 1.84375 0.78125 C 0.1875 0.0390625 -1.0625 -1.003906 -1.90625 -2.359375 C -2.757812 -3.722656 -3.257812 -5.15625 -3.40625 -6.65625 C -3.550781 -8.15625 -3.382812 -9.617188 -2.90625 -11.046875 C -2.4375 -12.484375 -1.691406 -13.6875 -0.671875 -14.65625 C 0.347656 -15.625 1.59375 -16.179688 3.0625 -16.328125 C 3.601562 -16.378906 3.894531 -16.1875 3.9375 -15.75 C 4.050781 -14.539062 4.617188 -13.601562 5.640625 -12.9375 C 6.671875 -12.28125 7.972656 -12.023438 9.546875 -12.171875 C 10.679688 -12.285156 11.890625 -12.722656 13.171875 -13.484375 C 14.453125 -14.242188 15.648438 -15.367188 16.765625 -16.859375 C 17.878906 -18.359375 18.769531 -20.269531 19.4375 -22.59375 C 19.800781 -23.882812 20.164062 -25.21875 20.53125 -26.59375 C 20.90625 -27.976562 21.269531 -29.28125 21.625 -30.5 C 21.914062 -31.5 22.335938 -32.222656 22.890625 -32.671875 C 23.453125 -33.128906 24.140625 -33.398438 24.953125 -33.484375 C 26.160156 -33.597656 26.984375 -33.410156 27.421875 -32.921875 C 27.859375 -32.429688 27.972656 -31.707031 27.765625 -30.75 C 27.117188 -27.769531 26.476562 -24.960938 25.84375 -22.328125 C 25.207031 -19.703125 24.492188 -17.128906 23.703125 -14.609375 C 22.078125 -9.441406 19.9375 -5.535156 17.28125 -2.890625 C 14.625 -0.253906 11.578125 1.222656 8.140625 1.546875 Z M 8.140625 1.546875 "/></g></g></g><g fill="#a2d0ff" fill-opacity="1"><g transform="translate(37.122764, 74.855155)"><g><path d="M 21.5625 -17.25 C 21.8125 -17.707031 22.179688 -17.894531 22.671875 -17.8125 C 23.160156 -17.738281 23.578125 -17.53125 23.921875 -17.1875 C 24.273438 -16.851562 24.359375 -16.488281 24.171875 -16.09375 C 23.847656 -15.476562 23.484375 -14.585938 23.078125 -13.421875 C 22.671875 -12.253906 22.171875 -11.003906 21.578125 -9.671875 C 20.992188 -8.335938 20.28125 -7.046875 19.4375 -5.796875 C 18.59375 -4.546875 17.609375 -3.5 16.484375 -2.65625 C 15.359375 -1.820312 14.039062 -1.332031 12.53125 -1.1875 C 11.03125 -1.039062 9.8125 -1.210938 8.875 -1.703125 C 7.945312 -2.191406 7.242188 -2.863281 6.765625 -3.71875 C 6.296875 -4.582031 6.019531 -5.46875 5.9375 -6.375 C 5.8125 -7.664062 5.882812 -8.953125 6.15625 -10.234375 C 6.425781 -11.515625 6.757812 -12.75 7.15625 -13.9375 C 7.5625 -15.125 7.914062 -16.210938 8.21875 -17.203125 C 8.519531 -18.191406 8.640625 -19.019531 8.578125 -19.6875 C 8.546875 -19.976562 8.289062 -20.382812 7.8125 -20.90625 C 7.332031 -21.4375 6.523438 -21.851562 5.390625 -22.15625 C 5.128906 -21.382812 4.8125 -20.492188 4.4375 -19.484375 C 4.070312 -18.472656 3.707031 -17.472656 3.34375 -16.484375 C 2.976562 -15.503906 2.675781 -14.691406 2.4375 -14.046875 C 2.257812 -13.546875 1.914062 -13.335938 1.40625 -13.421875 C 0.90625 -13.503906 0.472656 -13.734375 0.109375 -14.109375 C -0.253906 -14.484375 -0.34375 -14.847656 -0.15625 -15.203125 C 0.28125 -15.960938 0.742188 -17.078125 1.234375 -18.546875 C 1.722656 -20.023438 2.148438 -21.414062 2.515625 -22.71875 C 1.941406 -22.84375 1.46875 -23.109375 1.09375 -23.515625 C 0.71875 -23.921875 0.484375 -24.625 0.390625 -25.625 C 0.316406 -26.382812 0.445312 -27.160156 0.78125 -27.953125 C 1.125 -28.742188 1.632812 -29.429688 2.3125 -30.015625 C 2.988281 -30.597656 3.828125 -30.9375 4.828125 -31.03125 C 6.546875 -31.1875 8.234375 -31.007812 9.890625 -30.5 C 11.554688 -30 12.953125 -29.289062 14.078125 -28.375 C 15.203125 -27.46875 15.8125 -26.519531 15.90625 -25.53125 C 16 -24.507812 15.894531 -23.519531 15.59375 -22.5625 C 15.289062 -21.601562 14.984375 -20.628906 14.671875 -19.640625 C 14.359375 -18.648438 14.253906 -17.59375 14.359375 -16.46875 C 14.429688 -15.6875 14.75 -15.0625 15.3125 -14.59375 C 15.882812 -14.125 16.796875 -13.945312 18.046875 -14.0625 C 18.878906 -14.144531 19.554688 -14.476562 20.078125 -15.0625 C 20.597656 -15.65625 21.09375 -16.382812 21.5625 -17.25 Z M 21.5625 -17.25 "/></g></g></g><g fill="#a2d0ff" fill-opacity="1"><g transform="translate(58.842334, 72.799807)"><g><path d="M 5.828125 -0.546875 C 3.953125 -0.367188 2.46875 -1.003906 1.375 -2.453125 C 0.28125 -3.910156 -0.378906 -5.867188 -0.609375 -8.328125 C -0.753906 -9.859375 -0.71875 -11.507812 -0.5 -13.28125 C -0.28125 -15.0625 0.117188 -16.832031 0.703125 -18.59375 C 1.296875 -20.351562 2.097656 -21.972656 3.109375 -23.453125 C 4.117188 -24.929688 5.332031 -26.15625 6.75 -27.125 C 8.175781 -28.101562 9.84375 -28.679688 11.75 -28.859375 C 12.84375 -28.960938 13.703125 -28.941406 14.328125 -28.796875 C 14.953125 -28.648438 15.429688 -28.445312 15.765625 -28.1875 C 16.109375 -27.925781 16.398438 -27.703125 16.640625 -27.515625 C 16.878906 -27.335938 17.179688 -27.265625 17.546875 -27.296875 C 18.171875 -27.359375 18.660156 -27.578125 19.015625 -27.953125 C 19.378906 -28.335938 19.773438 -28.726562 20.203125 -29.125 C 20.640625 -29.519531 21.285156 -29.757812 22.140625 -29.84375 C 22.867188 -29.90625 23.382812 -29.765625 23.6875 -29.421875 C 24 -29.078125 24.1875 -28.597656 24.25 -27.984375 C 24.34375 -26.953125 24.15625 -25.90625 23.6875 -24.84375 C 23.21875 -23.78125 22.75 -22.421875 22.28125 -20.765625 C 21.550781 -18.648438 21.351562 -17.070312 21.6875 -16.03125 C 22.03125 -14.988281 22.8125 -14.523438 24.03125 -14.640625 C 24.976562 -14.722656 25.773438 -15.046875 26.421875 -15.609375 C 27.078125 -16.179688 27.640625 -16.9375 28.109375 -17.875 C 28.359375 -18.332031 28.71875 -18.519531 29.1875 -18.4375 C 29.65625 -18.351562 30.0625 -18.140625 30.40625 -17.796875 C 30.757812 -17.460938 30.859375 -17.101562 30.703125 -16.71875 C 30.171875 -15.375 29.601562 -13.882812 29 -12.25 C 28.394531 -10.625 27.703125 -9.050781 26.921875 -7.53125 C 26.140625 -6.019531 25.207031 -4.738281 24.125 -3.6875 C 23.039062 -2.644531 21.722656 -2.050781 20.171875 -1.90625 C 18.273438 -1.726562 16.859375 -2.375 15.921875 -3.84375 C 14.992188 -5.3125 14.582031 -7.195312 14.6875 -9.5 L 14.46875 -9.46875 C 13.582031 -7.125 12.40625 -5.097656 10.9375 -3.390625 C 9.46875 -1.679688 7.765625 -0.734375 5.828125 -0.546875 Z M 10.25 -12.46875 C 11.195312 -12.550781 12.003906 -12.898438 12.671875 -13.515625 C 13.335938 -14.128906 13.832031 -14.851562 14.15625 -15.6875 C 14.488281 -16.519531 14.617188 -17.316406 14.546875 -18.078125 C 14.453125 -18.992188 14.125 -19.679688 13.5625 -20.140625 C 13.007812 -20.597656 12.289062 -20.785156 11.40625 -20.703125 C 10.457031 -20.617188 9.65625 -20.285156 9 -19.703125 C 8.351562 -19.128906 7.875 -18.429688 7.5625 -17.609375 C 7.257812 -16.785156 7.144531 -15.972656 7.21875 -15.171875 C 7.300781 -14.242188 7.613281 -13.539062 8.15625 -13.0625 C 8.707031 -12.582031 9.40625 -12.382812 10.25 -12.46875 Z M 10.25 -12.46875 "/></g></g></g><g fill="#a2d0ff" fill-opacity="1"><g transform="translate(87.105272, 70.125253)"><g><path d="M 24.375 -17.515625 C 24.5625 -17.859375 24.894531 -18.007812 25.375 -17.96875 C 25.851562 -17.925781 26.28125 -17.765625 26.65625 -17.484375 C 27.039062 -17.203125 27.144531 -16.828125 26.96875 -16.359375 C 26.5625 -15.222656 26 -14.023438 25.28125 -12.765625 C 24.5625 -11.515625 23.628906 -10.4375 22.484375 -9.53125 C 21.335938 -8.625 19.863281 -8.085938 18.0625 -7.921875 C 17.101562 -7.828125 16.210938 -8.019531 15.390625 -8.5 C 14.222656 -6.394531 12.90625 -4.609375 11.4375 -3.140625 C 9.96875 -1.671875 8.390625 -0.859375 6.703125 -0.703125 C 5.242188 -0.554688 4.003906 -0.894531 2.984375 -1.71875 C 1.960938 -2.539062 1.164062 -3.664062 0.59375 -5.09375 C 0.03125 -6.53125 -0.320312 -8.132812 -0.46875 -9.90625 C -0.613281 -11.6875 -0.546875 -13.445312 -0.265625 -15.1875 C -0.0664062 -16.632812 0.222656 -18.117188 0.609375 -19.640625 C 1.003906 -21.160156 1.472656 -22.566406 2.015625 -23.859375 C 2.566406 -25.148438 3.160156 -26.195312 3.796875 -27 C 4.441406 -27.800781 5.148438 -28.238281 5.921875 -28.3125 C 6.460938 -28.363281 6.894531 -28.234375 7.21875 -27.921875 C 7.550781 -27.617188 7.757812 -27.066406 7.84375 -26.265625 C 7.9375 -25.234375 7.828125 -24.09375 7.515625 -22.84375 C 7.203125 -21.59375 6.898438 -20.332031 6.609375 -19.0625 C 6.328125 -17.800781 6.238281 -16.625 6.34375 -15.53125 C 6.445312 -14.5 6.78125 -13.695312 7.34375 -13.125 C 7.914062 -12.550781 8.773438 -12.320312 9.921875 -12.4375 C 11.085938 -12.539062 11.957031 -12.878906 12.53125 -13.453125 C 13.113281 -14.023438 13.515625 -14.523438 13.734375 -14.953125 C 13.460938 -15.773438 13.234375 -16.601562 13.046875 -17.4375 C 12.859375 -18.269531 12.722656 -19.125 12.640625 -20 C 12.484375 -21.613281 12.535156 -23.113281 12.796875 -24.5 C 13.054688 -25.894531 13.554688 -27.046875 14.296875 -27.953125 C 15.046875 -28.859375 16.046875 -29.375 17.296875 -29.5 C 18.835938 -29.644531 19.867188 -29.09375 20.390625 -27.84375 C 20.910156 -26.59375 20.984375 -24.820312 20.609375 -22.53125 C 20.242188 -20.238281 19.441406 -17.578125 18.203125 -14.546875 C 18.773438 -14.367188 19.445312 -14.316406 20.21875 -14.390625 C 21.03125 -14.460938 21.78125 -14.742188 22.46875 -15.234375 C 23.15625 -15.734375 23.789062 -16.492188 24.375 -17.515625 Z M 24.375 -17.515625 "/></g></g></g><g fill="#a2d0ff" fill-opacity="1"><g transform="translate(111.629139, 67.804531)"><g><path d="M 10.34375 -0.984375 C 8.132812 -0.773438 6.273438 -1.097656 4.765625 -1.953125 C 3.265625 -2.804688 2.097656 -4.019531 1.265625 -5.59375 C 0.429688 -7.164062 -0.0625 -8.929688 -0.21875 -10.890625 C -0.382812 -12.847656 -0.234375 -14.835938 0.234375 -16.859375 C 0.703125 -18.878906 1.484375 -20.765625 2.578125 -22.515625 C 3.671875 -24.273438 5.0625 -25.734375 6.75 -26.890625 C 8.4375 -28.046875 10.394531 -28.726562 12.625 -28.9375 C 14.34375 -29.101562 15.773438 -28.914062 16.921875 -28.375 C 18.066406 -27.84375 18.945312 -27.066406 19.5625 -26.046875 C 20.175781 -25.035156 20.539062 -23.921875 20.65625 -22.703125 C 20.78125 -21.390625 20.535156 -20.035156 19.921875 -18.640625 C 19.304688 -17.253906 18.378906 -16.066406 17.140625 -15.078125 C 15.910156 -14.097656 14.398438 -13.519531 12.609375 -13.34375 C 11.835938 -13.269531 11.078125 -13.25 10.328125 -13.28125 C 9.585938 -13.320312 8.890625 -13.5 8.234375 -13.8125 C 8.035156 -13.90625 7.832031 -13.894531 7.625 -13.78125 C 7.414062 -13.675781 7.332031 -13.4375 7.375 -13.0625 C 7.457031 -12.113281 8.082031 -11.441406 9.25 -11.046875 C 10.414062 -10.660156 11.785156 -10.539062 13.359375 -10.6875 C 15.222656 -10.863281 17.109375 -11.523438 19.015625 -12.671875 C 20.921875 -13.828125 22.410156 -15.414062 23.484375 -17.4375 C 23.742188 -17.894531 24.113281 -18.082031 24.59375 -18 C 25.082031 -17.914062 25.5 -17.707031 25.84375 -17.375 C 26.195312 -17.039062 26.273438 -16.675781 26.078125 -16.28125 C 24.085938 -11.582031 21.765625 -7.929688 19.109375 -5.328125 C 16.453125 -2.734375 13.53125 -1.285156 10.34375 -0.984375 Z M 10.78125 -17.328125 C 11.84375 -17.421875 12.644531 -17.835938 13.1875 -18.578125 C 13.726562 -19.316406 13.960938 -20.03125 13.890625 -20.71875 C 13.835938 -21.34375 13.582031 -21.859375 13.125 -22.265625 C 12.664062 -22.671875 12.007812 -22.832031 11.15625 -22.75 C 10.101562 -22.644531 9.296875 -22.234375 8.734375 -21.515625 C 8.171875 -20.796875 7.921875 -20.070312 7.984375 -19.34375 C 8.046875 -18.757812 8.304688 -18.253906 8.765625 -17.828125 C 9.234375 -17.410156 9.90625 -17.242188 10.78125 -17.328125 Z M 10.78125 -17.328125 "/></g></g></g><g fill="#a2d0ff" fill-opacity="1"><g transform="translate(135.273227, 65.567063)"><g><path d="M 4.671875 -0.4375 C 2.722656 -0.257812 1.3125 -0.675781 0.4375 -1.6875 C -0.425781 -2.695312 -0.929688 -4.003906 -1.078125 -5.609375 C -1.210938 -7.003906 -1.179688 -8.539062 -0.984375 -10.21875 C -0.796875 -11.90625 -0.5 -13.566406 -0.09375 -15.203125 C 1.257812 -20.722656 2.414062 -25.359375 3.375 -29.109375 C 4.332031 -32.867188 5.328125 -35.734375 6.359375 -37.703125 C 7.398438 -39.671875 8.65625 -40.722656 10.125 -40.859375 C 11.257812 -40.960938 12.007812 -40.597656 12.375 -39.765625 C 12.75 -38.929688 12.601562 -37.609375 11.9375 -35.796875 C 10.707031 -32.609375 9.671875 -29.675781 8.828125 -27 C 7.992188 -24.320312 7.375 -21.796875 6.96875 -19.421875 C 6.789062 -18.316406 6.679688 -17.273438 6.640625 -16.296875 C 6.609375 -15.316406 6.800781 -14.539062 7.21875 -13.96875 C 7.644531 -13.394531 8.410156 -13.160156 9.515625 -13.265625 C 10.472656 -13.347656 11.285156 -13.671875 11.953125 -14.234375 C 12.617188 -14.804688 13.203125 -15.566406 13.703125 -16.515625 C 13.953125 -16.960938 14.316406 -17.144531 14.796875 -17.0625 C 15.285156 -16.988281 15.703125 -16.785156 16.046875 -16.453125 C 16.398438 -16.117188 16.484375 -15.753906 16.296875 -15.359375 C 15.984375 -14.734375 15.625 -13.835938 15.21875 -12.671875 C 14.820312 -11.503906 14.320312 -10.253906 13.71875 -8.921875 C 13.125 -7.585938 12.40625 -6.296875 11.5625 -5.046875 C 10.71875 -3.804688 9.734375 -2.765625 8.609375 -1.921875 C 7.484375 -1.078125 6.171875 -0.582031 4.671875 -0.4375 Z M 4.671875 -0.4375 "/></g></g></g><g fill="#a2d0ff" fill-opacity="1"><g transform="translate(149.129768, 64.255803)"><g><path d="M 26.015625 -17.671875 C 26.203125 -18.015625 26.535156 -18.164062 27.015625 -18.125 C 27.503906 -18.082031 27.9375 -17.921875 28.3125 -17.640625 C 28.6875 -17.359375 28.785156 -16.984375 28.609375 -16.515625 C 28.210938 -15.378906 27.648438 -14.179688 26.921875 -12.921875 C 26.203125 -11.671875 25.269531 -10.59375 24.125 -9.6875 C 22.976562 -8.78125 21.503906 -8.242188 19.703125 -8.078125 L 19.046875 -8.015625 C 17.867188 -6.023438 16.390625 -4.378906 14.609375 -3.078125 C 12.828125 -1.773438 10.90625 -1.03125 8.84375 -0.84375 C 6.394531 -0.601562 4.285156 -1.234375 2.515625 -2.734375 C 0.742188 -4.234375 -0.273438 -6.410156 -0.546875 -9.265625 C -0.742188 -11.316406 -0.566406 -13.453125 -0.015625 -15.671875 C 0.523438 -17.890625 1.390625 -19.96875 2.578125 -21.90625 C 3.773438 -23.84375 5.234375 -25.453125 6.953125 -26.734375 C 8.679688 -28.015625 10.644531 -28.757812 12.84375 -28.96875 C 14.34375 -29.101562 15.726562 -28.925781 17 -28.4375 C 18.269531 -27.945312 19.328125 -27.035156 20.171875 -25.703125 C 21.015625 -24.378906 21.546875 -22.5625 21.765625 -20.25 C 21.941406 -18.3125 21.847656 -16.394531 21.484375 -14.5 L 21.859375 -14.546875 C 22.671875 -14.617188 23.421875 -14.898438 24.109375 -15.390625 C 24.796875 -15.890625 25.429688 -16.648438 26.015625 -17.671875 Z M 10.921875 -12.53125 C 11.828125 -12.613281 12.601562 -12.960938 13.25 -13.578125 C 13.894531 -14.191406 14.378906 -14.910156 14.703125 -15.734375 C 15.035156 -16.566406 15.164062 -17.363281 15.09375 -18.125 C 15.007812 -18.9375 14.703125 -19.597656 14.171875 -20.109375 C 13.648438 -20.628906 12.859375 -20.84375 11.796875 -20.75 C 10.910156 -20.664062 10.148438 -20.332031 9.515625 -19.75 C 8.890625 -19.175781 8.421875 -18.476562 8.109375 -17.65625 C 7.804688 -16.832031 7.691406 -16.019531 7.765625 -15.21875 C 7.835938 -14.40625 8.125 -13.726562 8.625 -13.1875 C 9.125 -12.644531 9.890625 -12.425781 10.921875 -12.53125 Z M 10.921875 -12.53125 "/></g></g></g><g fill="#a2d0ff" fill-opacity="1"><g transform="translate(175.303222, 61.778978)"><g><path d="M 26.671875 -17.734375 C 26.867188 -18.078125 27.207031 -18.226562 27.6875 -18.1875 C 28.164062 -18.144531 28.59375 -17.984375 28.96875 -17.703125 C 29.351562 -17.421875 29.453125 -17.046875 29.265625 -16.578125 C 28.859375 -15.441406 28.296875 -14.25 27.578125 -13 C 26.867188 -11.75 25.9375 -10.664062 24.78125 -9.75 C 23.632812 -8.84375 22.164062 -8.304688 20.375 -8.140625 L 20.046875 -8.109375 C 18.941406 -6.117188 17.585938 -4.484375 15.984375 -3.203125 C 14.378906 -1.921875 12.695312 -1.195312 10.9375 -1.03125 C 9.363281 -0.882812 8.023438 -1.238281 6.921875 -2.09375 C 5.828125 -2.957031 5.359375 -4.503906 5.515625 -6.734375 C 5.566406 -7.367188 5.34375 -7.679688 4.84375 -7.671875 C 4.351562 -7.660156 4.066406 -7.300781 3.984375 -6.59375 C 3.773438 -4.53125 3.550781 -2.472656 3.3125 -0.421875 C 3.082031 1.628906 2.78125 3.523438 2.40625 5.265625 C 2.039062 7.003906 1.554688 8.410156 0.953125 9.484375 C 0.347656 10.554688 -0.441406 11.140625 -1.421875 11.234375 C -2.785156 11.359375 -3.800781 11.117188 -4.46875 10.515625 C -5.132812 9.910156 -5.523438 9.003906 -5.640625 7.796875 C -5.804688 6.109375 -5.472656 3.859375 -4.640625 1.046875 C -3.816406 -1.765625 -2.882812 -5.03125 -1.84375 -8.75 C -1.550781 -9.738281 -1.257812 -10.773438 -0.96875 -11.859375 C -0.6875 -12.941406 -0.414062 -14.054688 -0.15625 -15.203125 C 0.46875 -17.921875 0.992188 -20.117188 1.421875 -21.796875 C 1.859375 -23.484375 2.265625 -24.78125 2.640625 -25.6875 C 3.015625 -26.59375 3.425781 -27.234375 3.875 -27.609375 C 4.320312 -27.984375 4.894531 -28.207031 5.59375 -28.28125 C 6.539062 -28.363281 7.175781 -28.234375 7.5 -27.890625 C 7.832031 -27.554688 7.988281 -27.128906 7.96875 -26.609375 C 7.9375 -26.191406 8.128906 -25.941406 8.546875 -25.859375 C 8.960938 -25.773438 9.367188 -25.972656 9.765625 -26.453125 C 10.617188 -27.484375 11.476562 -28.171875 12.34375 -28.515625 C 13.21875 -28.867188 14.082031 -29.082031 14.9375 -29.15625 C 17.09375 -29.363281 18.898438 -28.785156 20.359375 -27.421875 C 21.828125 -26.054688 22.6875 -24.078125 22.9375 -21.484375 C 23.050781 -20.304688 23.066406 -19.140625 22.984375 -17.984375 C 22.898438 -16.828125 22.75 -15.703125 22.53125 -14.609375 C 23.332031 -14.679688 24.078125 -14.960938 24.765625 -15.453125 C 25.460938 -15.953125 26.097656 -16.710938 26.671875 -17.734375 Z M 10.921875 -12.53125 C 11.828125 -12.613281 12.601562 -12.960938 13.25 -13.578125 C 13.894531 -14.191406 14.378906 -14.910156 14.703125 -15.734375 C 15.035156 -16.566406 15.164062 -17.363281 15.09375 -18.125 C 15.007812 -18.9375 14.703125 -19.597656 14.171875 -20.109375 C 13.648438 -20.628906 12.859375 -20.84375 11.796875 -20.75 C 10.910156 -20.664062 10.148438 -20.332031 9.515625 -19.75 C 8.890625 -19.175781 8.421875 -18.476562 8.109375 -17.65625 C 7.804688 -16.832031 7.691406 -16.019531 7.765625 -15.21875 C 7.835938 -14.40625 8.125 -13.726562 8.625 -13.1875 C 9.125 -12.644531 9.890625 -12.425781 10.921875 -12.53125 Z M 10.921875 -12.53125 "/></g></g></g><g fill="#a2d0ff" fill-opacity="1"><g transform="translate(202.136523, 59.239712)"><g><path d="M 10.34375 -0.984375 C 8.132812 -0.773438 6.273438 -1.097656 4.765625 -1.953125 C 3.265625 -2.804688 2.097656 -4.019531 1.265625 -5.59375 C 0.429688 -7.164062 -0.0625 -8.929688 -0.21875 -10.890625 C -0.382812 -12.847656 -0.234375 -14.835938 0.234375 -16.859375 C 0.703125 -18.878906 1.484375 -20.765625 2.578125 -22.515625 C 3.671875 -24.273438 5.0625 -25.734375 6.75 -26.890625 C 8.4375 -28.046875 10.394531 -28.726562 12.625 -28.9375 C 14.34375 -29.101562 15.773438 -28.914062 16.921875 -28.375 C 18.066406 -27.84375 18.945312 -27.066406 19.5625 -26.046875 C 20.175781 -25.035156 20.539062 -23.921875 20.65625 -22.703125 C 20.78125 -21.390625 20.535156 -20.035156 19.921875 -18.640625 C 19.304688 -17.253906 18.378906 -16.066406 17.140625 -15.078125 C 15.910156 -14.097656 14.398438 -13.519531 12.609375 -13.34375 C 11.835938 -13.269531 11.078125 -13.25 10.328125 -13.28125 C 9.585938 -13.320312 8.890625 -13.5 8.234375 -13.8125 C 8.035156 -13.90625 7.832031 -13.894531 7.625 -13.78125 C 7.414062 -13.675781 7.332031 -13.4375 7.375 -13.0625 C 7.457031 -12.113281 8.082031 -11.441406 9.25 -11.046875 C 10.414062 -10.660156 11.785156 -10.539062 13.359375 -10.6875 C 15.222656 -10.863281 17.109375 -11.523438 19.015625 -12.671875 C 20.921875 -13.828125 22.410156 -15.414062 23.484375 -17.4375 C 23.742188 -17.894531 24.113281 -18.082031 24.59375 -18 C 25.082031 -17.914062 25.5 -17.707031 25.84375 -17.375 C 26.195312 -17.039062 26.273438 -16.675781 26.078125 -16.28125 C 24.085938 -11.582031 21.765625 -7.929688 19.109375 -5.328125 C 16.453125 -2.734375 13.53125 -1.285156 10.34375 -0.984375 Z M 10.78125 -17.328125 C 11.84375 -17.421875 12.644531 -17.835938 13.1875 -18.578125 C 13.726562 -19.316406 13.960938 -20.03125 13.890625 -20.71875 C 13.835938 -21.34375 13.582031 -21.859375 13.125 -22.265625 C 12.664062 -22.671875 12.007812 -22.832031 11.15625 -22.75 C 10.101562 -22.644531 9.296875 -22.234375 8.734375 -21.515625 C 8.171875 -20.796875 7.921875 -20.070312 7.984375 -19.34375 C 8.046875 -18.757812 8.304688 -18.253906 8.765625 -17.828125 C 9.234375 -17.410156 9.90625 -17.242188 10.78125 -17.328125 Z M 10.78125 -17.328125 "/></g></g></g><g fill="#a2d0ff" fill-opacity="1"><g transform="translate(225.78062, 57.002244)"><g><path d="M 21.5625 -17.25 C 21.8125 -17.707031 22.179688 -17.894531 22.671875 -17.8125 C 23.160156 -17.738281 23.578125 -17.53125 23.921875 -17.1875 C 24.273438 -16.851562 24.359375 -16.488281 24.171875 -16.09375 C 23.847656 -15.476562 23.484375 -14.585938 23.078125 -13.421875 C 22.671875 -12.253906 22.171875 -11.003906 21.578125 -9.671875 C 20.992188 -8.335938 20.28125 -7.046875 19.4375 -5.796875 C 18.59375 -4.546875 17.609375 -3.5 16.484375 -2.65625 C 15.359375 -1.820312 14.039062 -1.332031 12.53125 -1.1875 C 11.03125 -1.039062 9.8125 -1.210938 8.875 -1.703125 C 7.945312 -2.191406 7.242188 -2.863281 6.765625 -3.71875 C 6.296875 -4.582031 6.019531 -5.46875 5.9375 -6.375 C 5.8125 -7.664062 5.882812 -8.953125 6.15625 -10.234375 C 6.425781 -11.515625 6.757812 -12.75 7.15625 -13.9375 C 7.5625 -15.125 7.914062 -16.210938 8.21875 -17.203125 C 8.519531 -18.191406 8.640625 -19.019531 8.578125 -19.6875 C 8.546875 -19.976562 8.289062 -20.382812 7.8125 -20.90625 C 7.332031 -21.4375 6.523438 -21.851562 5.390625 -22.15625 C 5.128906 -21.382812 4.8125 -20.492188 4.4375 -19.484375 C 4.070312 -18.472656 3.707031 -17.472656 3.34375 -16.484375 C 2.976562 -15.503906 2.675781 -14.691406 2.4375 -14.046875 C 2.257812 -13.546875 1.914062 -13.335938 1.40625 -13.421875 C 0.90625 -13.503906 0.472656 -13.734375 0.109375 -14.109375 C -0.253906 -14.484375 -0.34375 -14.847656 -0.15625 -15.203125 C 0.28125 -15.960938 0.742188 -17.078125 1.234375 -18.546875 C 1.722656 -20.023438 2.148438 -21.414062 2.515625 -22.71875 C 1.941406 -22.84375 1.46875 -23.109375 1.09375 -23.515625 C 0.71875 -23.921875 0.484375 -24.625 0.390625 -25.625 C 0.316406 -26.382812 0.445312 -27.160156 0.78125 -27.953125 C 1.125 -28.742188 1.632812 -29.429688 2.3125 -30.015625 C 2.988281 -30.597656 3.828125 -30.9375 4.828125 -31.03125 C 6.546875 -31.1875 8.234375 -31.007812 9.890625 -30.5 C 11.554688 -30 12.953125 -29.289062 14.078125 -28.375 C 15.203125 -27.46875 15.8125 -26.519531 15.90625 -25.53125 C 16 -24.507812 15.894531 -23.519531 15.59375 -22.5625 C 15.289062 -21.601562 14.984375 -20.628906 14.671875 -19.640625 C 14.359375 -18.648438 14.253906 -17.59375 14.359375 -16.46875 C 14.429688 -15.6875 14.75 -15.0625 15.3125 -14.59375 C 15.882812 -14.125 16.796875 -13.945312 18.046875 -14.0625 C 18.878906 -14.144531 19.554688 -14.476562 20.078125 -15.0625 C 20.597656 -15.65625 21.09375 -16.382812 21.5625 -17.25 Z M 21.5625 -17.25 "/></g></g></g></g></g></svg>